<svg xmlns="http://www.w3.org/2000/svg" viewBox="0 0 713.000000 1051.000000" fill="none" role="img" aria-label="Mother cradling her baby">
  <defs>
    <linearGradient id="dawnMother" x1="120" y1="90" x2="600" y2="980" gradientUnits="userSpaceOnUse">
      <stop stop-color="#E7C79B"/>
      <stop offset="1" stop-color="#E7A6A8"/>
    </linearGradient>
  </defs>
  <g transform="translate(0.000000,1051.000000) scale(0.100000,-0.100000)" fill="url(#dawnMother)" stroke="none">
<path d="M3380 10490 c-191 -30 -348 -71 -445 -115 -53 -24 -179 -86 -200 -98
-97 -56 -133 -80 -220 -145 -174 -131 -367 -347 -474 -531 -180 -307 -254
-542 -326 -1036 -37 -256 -67 -405 -91 -463 -8 -18 -14 -38 -14 -45 0 -21 -99
-244 -162 -367 -53 -102 -90 -162 -162 -265 -58 -82 -249 -306 -376 -440 -276
-291 -509 -635 -594 -875 -126 -352 -151 -489 -151 -820 1 -250 5 -295 51
-456 8 -28 14 -58 14 -67 0 -9 6 -31 14 -49 8 -18 21 -52 30 -75 40 -106 52
-134 100 -231 28 -57 57 -113 63 -125 15 -27 113 -153 113 -145 0 5 -55 115
-70 138 -24 37 -100 171 -100 175 0 3 -13 33 -28 67 -54 119 -58 129 -98 288
-102 402 -57 941 110 1315 148 329 291 531 658 927 192 207 299 345 408 529
33 57 65 111 70 119 6 8 14 25 20 37 5 12 26 57 46 100 73 155 140 405 164
613 7 61 13 97 42 253 6 34 14 82 18 107 18 111 119 450 141 475 5 5 9 15 9
23 0 17 99 214 145 290 148 242 384 478 619 620 122 74 365 172 501 202 22 5
60 13 85 19 151 33 348 46 470 31 52 -6 124 -15 160 -19 86 -10 241 -49 308
-77 18 -8 38 -14 46 -14 23 0 206 -82 321 -144 128 -69 349 -269 454 -410 43
-59 91 -107 91 -93 0 11 -34 67 -62 103 -226 286 -382 404 -733 559 -251 110
-677 161 -965 115z M4125 9763 c-33 -6 -147 -34 -195 -49 -25 -7 -90 -27 -145
-44 -186 -58 -466 -208 -571 -307 -101 -96 -218 -269 -273 -403 -12 -30 -26
-64 -31 -75 -38 -86 -53 -302 -24 -357 15 -29 14 -33 -14 -102 -17 -39 -38
-92 -48 -118 -20 -58 -24 -61 -99 -88 -73 -26 -133 -49 -161 -62 -32 -15 -57
-6 -65 22 -7 24 -7 24 -8 -5 -1 -16 -5 -35 -9 -40 -6 -9 -128 -85 -137 -85 -7
0 -112 -74 -159 -112 -207 -169 -401 -475 -456 -718 -4 -19 -12 -55 -18 -80
-31 -126 -42 -193 -42 -245 0 -31 -4 -65 -10 -75 -15 -29 -25 -130 -12 -130 6
0 14 17 17 38 3 20 10 59 16 85 6 26 15 76 20 110 53 391 185 669 434 913 148
145 258 212 543 328 77 32 90 32 101 4 8 -22 8 -22 24 8 17 32 53 54 92 54 13
0 36 5 52 11 15 7 48 15 73 19 25 4 65 12 90 18 78 19 225 42 266 42 37 0 134
12 359 45 55 8 114 15 132 15 17 0 44 5 59 10 14 6 54 15 88 20 283 46 538
143 763 293 137 91 350 317 395 418 9 20 20 29 35 29 23 0 29 21 25 89 -4 78
84 54 182 -47 119 -123 178 -283 180 -487 1 -113 -8 -166 -69 -380 -80 -285
-90 -373 -55 -516 28 -118 135 -327 156 -306 7 7 -7 40 -68 161 -84 166 -80
357 15 698 102 361 61 647 -119 847 -104 116 -244 158 -244 75 0 -14 -6 -38
-14 -52 -7 -15 -20 -40 -27 -56 -22 -47 -153 -214 -227 -290 -123 -126 -299
-240 -482 -311 -44 -17 -67 -27 -143 -59 -21 -9 -45 -16 -53 -16 -9 0 -37 -6
-63 -14 -93 -29 -157 -45 -196 -50 -22 -3 -65 -9 -95 -15 -30 -6 -118 -17
-195 -26 -330 -36 -415 -47 -500 -61 -107 -18 -213 -41 -274 -60 -59 -18 -101
-18 -101 1 0 22 89 188 112 208 11 9 31 17 45 17 22 0 153 32 238 59 42 13
169 68 213 92 322 179 517 429 657 844 28 81 75 239 75 251 0 14 -26 21 -55
17z m3 -76 c2 -22 -3 -46 -12 -59 -9 -12 -16 -30 -16 -40 0 -9 -6 -32 -14 -50
-8 -18 -31 -72 -50 -120 -190 -458 -406 -675 -815 -818 -63 -22 -122 -40 -130
-40 -9 0 -29 -7 -45 -15 -136 -71 3 152 256 411 70 72 128 133 128 137 0 12
-116 -73 -170 -125 -92 -88 -192 -211 -249 -304 -62 -103 -79 -124 -98 -124
-19 0 -17 143 3 211 8 30 22 79 31 109 24 81 115 267 162 329 135 180 292 291
551 391 47 18 94 37 105 41 55 23 181 63 245 78 19 5 46 13 60 19 41 18 55 10
58 -31z M2463 9455 c-36 -44 -88 -168 -116 -280 -40 -159 -52 -280 -37 -365 7
-36 15 -85 19 -110 4 -25 13 -61 19 -80 6 -19 20 -62 31 -95 11 -33 30 -85 41
-115 12 -30 26 -70 31 -87 6 -18 14 -33 19 -33 14 0 12 47 -2 73 -6 12 -15 35
-19 52 -4 16 -17 55 -29 85 -46 119 -80 280 -80 385 0 163 87 487 144 534 14
12 19 6 46 -52 37 -81 59 -141 70 -187 4 -19 12 -48 18 -65 56 -167 40 -488
-34 -663 -8 -18 -14 -40 -14 -50 0 -9 -7 -26 -15 -36 -8 -11 -15 -30 -15 -42
0 -12 -11 -29 -25 -38 -24 -16 -36 -66 -16 -66 11 0 65 78 73 105 4 11 16 45
28 75 129 331 113 710 -41 990 -5 8 -15 29 -22 45 -26 56 -41 60 -74 20z
M5240 9074 c0 -8 5 -58 12 -110 12 -101 -2 -345 -24 -409 -6 -16 -14 -46 -18
-65 -29 -128 -108 -271 -242 -436 -54 -67 -118 -178 -118 -206 0 -7 -8 -44
-17 -82 -15 -63 -15 -82 -3 -185 27 -234 26 -272 -9 -305 -31 -30 -124 -66
-171 -66 -34 0 -113 -53 -87 -58 10 -2 26 3 36 12 20 18 61 22 61 6 0 -6 -8
-14 -17 -17 -10 -4 -36 -19 -57 -35 -21 -15 -48 -28 -60 -28 -13 0 -31 -14
-46 -37 -14 -20 -30 -41 -35 -47 -6 -6 -32 -39 -59 -74 -26 -34 -72 -81 -102
-103 -30 -22 -70 -61 -90 -87 -19 -26 -63 -85 -97 -131 -73 -99 -107 -121
-188 -121 -151 0 -329 102 -548 312 -47 46 -95 90 -106 98 -44 33 -205 231
-255 315 -13 22 -28 42 -32 43 -4 2 -8 12 -8 22 0 20 -17 36 -28 26 -7 -8 69
-156 80 -156 5 0 8 -5 8 -11 0 -6 17 -32 38 -57 20 -26 46 -58 57 -71 11 -14
37 -44 58 -67 44 -49 44 -52 -15 -81 -90 -46 -178 -166 -241 -328 -38 -99 -45
-126 -57 -215 -35 -264 111 -513 445 -762 220 -163 565 -442 565 -456 0 -4 19
-28 43 -54 49 -54 103 -117 146 -172 20 -24 31 -33 31 -22 0 9 -4 16 -10 16
-5 0 -10 6 -10 14 0 28 -121 174 -227 276 -143 137 -217 200 -365 311 -310
234 -414 333 -497 474 -28 47 -51 92 -51 99 0 7 -7 31 -16 52 -25 61 -23 241
4 324 36 111 49 142 91 225 47 91 69 118 136 169 71 55 85 51 204 -56 167
-151 229 -197 350 -258 102 -51 259 -62 323 -22 46 28 93 85 143 170 40 69 91
132 107 132 12 0 8 -24 -22 -130 -30 -109 -36 -253 -16 -377 21 -134 10 -174
-73 -250 -80 -75 -86 -111 -35 -195 l36 -59 -16 -42 c-22 -59 -20 -81 14 -154
17 -34 30 -70 30 -79 0 -23 25 -66 53 -92 14 -13 36 -51 48 -85 47 -125 135
-177 297 -177 50 0 93 -3 96 -8 2 -4 -27 -34 -66 -66 -65 -55 -157 -165 -205
-246 -65 -109 -164 -305 -186 -370 -28 -82 -56 -140 -68 -140 -15 0 -426 308
-455 341 -24 27 -41 72 -53 145 -28 154 -87 234 -186 247 -23 4 -63 20 -88 37
-65 43 -151 44 -200 0 -19 -16 -40 -30 -46 -30 -11 0 -39 -25 -56 -52 -5 -9
-24 -35 -41 -59 -48 -67 -85 -144 -91 -186 -6 -52 30 -104 115 -168 210 -157
282 -230 337 -340 70 -141 197 -325 286 -415 219 -220 486 -322 690 -265 56
16 181 74 187 88 2 4 11 7 19 7 20 0 -9 -29 -97 -95 -197 -150 -454 -359 -590
-480 -110 -98 -328 -327 -360 -378 -42 -67 -69 -73 -83 -17 -23 94 -40 159
-52 200 -40 138 -79 259 -91 288 -8 18 -14 39 -14 47 0 7 -6 26 -14 42 -8 15
-21 46 -29 68 -19 51 -62 160 -120 300 -25 61 -67 164 -93 230 -65 167 -310
677 -420 875 -20 36 -46 83 -58 105 -12 22 -33 58 -46 80 -14 23 -30 50 -37
60 -290 480 -496 705 -757 829 -141 67 -196 78 -361 73 -194 -6 -285 -37 -412
-138 -162 -128 -254 -302 -303 -569 -23 -122 -27 -369 -8 -465 6 -33 12 -103
13 -155 1 -88 6 -108 58 -258 53 -151 79 -220 112 -297 25 -57 148 -300 170
-335 12 -19 25 -42 28 -50 4 -8 16 -28 27 -45 11 -16 24 -39 30 -50 6 -11 18
-32 28 -46 9 -15 35 -55 57 -90 21 -35 59 -93 84 -129 130 -189 129 -188 160
-401 5 -31 13 -79 19 -105 6 -27 16 -71 22 -99 6 -27 13 -61 16 -75 6 -30 32
-124 46 -165 5 -16 14 -46 18 -65 9 -40 26 -91 45 -135 8 -16 16 -42 19 -58 7
-30 26 -37 26 -9 0 19 -24 98 -46 150 -8 18 -14 43 -14 55 -1 12 -7 33 -15 47
-8 14 -14 36 -15 49 0 13 -7 44 -14 70 -41 129 -63 225 -102 449 -12 64 6 49
173 -149 274 -325 303 -367 303 -431 0 -11 6 -34 14 -51 8 -18 16 -45 19 -62
10 -62 64 -188 77 -180 9 5 -8 64 -36 133 -8 18 -14 41 -14 52 0 11 -7 35 -16
54 -17 34 -13 71 7 64 23 -8 248 -284 249 -305 0 -12 -20 -61 -44 -110 -54
-108 -71 -155 -90 -258 -16 -84 -36 -372 -36 -510 0 -150 -18 -163 -49 -37
-36 140 -52 195 -67 229 -8 17 -14 36 -14 41 0 16 -121 250 -164 317 -114 178
-292 350 -446 432 -53 27 -92 45 -295 128 -368 152 -553 318 -708 635 -67 138
-207 466 -207 486 0 18 30 18 72 0 18 -8 73 -31 121 -51 233 -96 441 -222 561
-340 112 -111 292 -360 349 -485 4 -8 17 -31 28 -50 12 -19 33 -57 47 -85 14
-27 28 -52 31 -55 4 -3 16 -26 29 -52 13 -27 28 -48 33 -48 6 0 8 3 6 8 -2 4
-11 23 -19 42 -67 151 -71 159 -153 314 -162 309 -412 557 -700 694 -118 56
-188 86 -322 136 -164 60 -166 57 -83 -139 5 -11 19 -45 31 -75 11 -30 27 -68
35 -85 7 -16 25 -57 39 -90 191 -431 366 -608 773 -781 17 -8 49 -21 70 -30
20 -9 50 -22 65 -30 16 -8 33 -14 38 -14 17 0 143 -63 199 -99 200 -129 348
-305 471 -561 22 -47 46 -96 53 -110 7 -14 21 -52 31 -85 10 -33 23 -76 30
-95 18 -49 35 -117 45 -175 5 -27 14 -77 19 -110 26 -146 10 -476 -29 -625
-11 -41 0 -58 22 -33 33 37 58 302 73 773 16 495 67 759 178 923 l19 29 197
-195 c353 -351 492 -460 731 -575 155 -74 200 -86 340 -86 l125 -1 90 46 c154
77 305 198 530 423 338 340 695 817 1056 1409 63 103 122 200 131 215 10 15
21 34 25 42 4 8 27 49 51 90 24 41 56 98 72 125 55 101 88 161 110 200 12 22
30 54 40 70 11 17 26 44 34 60 8 17 28 53 44 80 16 28 47 84 69 126 23 42 46
85 51 95 6 10 48 81 94 157 46 77 89 149 96 160 7 12 35 56 62 97 26 41 79
125 116 185 37 61 92 148 123 195 92 141 192 329 218 409 58 184 57 175 57
511 0 381 -6 414 -150 820 -42 120 -124 220 -179 220 -36 0 -65 -26 -65 -58 0
-11 -5 -24 -11 -27 -12 -8 -49 22 -49 39 0 6 -28 48 -63 92 -126 158 -338 284
-562 332 -97 21 -254 35 -322 28 -214 -21 -312 -39 -362 -65 -37 -20 -53 1
-45 59 3 27 1 95 -6 152 -32 260 1 390 135 543 110 125 181 255 220 400 9 33
21 74 26 90 21 65 38 276 29 354 -6 42 -12 106 -16 144 -3 37 -10 67 -15 67
-5 0 -9 -7 -9 -16z m255 -1769 c388 -54 672 -276 790 -619 115 -334 78 -630
-118 -930 -73 -110 -127 -157 -141 -120 -12 32 -6 234 10 301 10 44 17 120 18
218 1 146 0 151 -26 195 -27 45 -72 80 -101 80 -26 0 -76 -49 -95 -93 -17 -40
-31 -97 -68 -289 -30 -155 -55 -231 -149 -458 -97 -233 -105 -278 -105 -591 0
-336 -4 -352 -174 -607 -151 -226 -265 -351 -522 -573 -39 -33 -155 -112 -159
-107 -1 1 29 37 67 78 194 208 456 595 424 627 -10 10 -35 -17 -68 -76 -89
-158 -194 -305 -329 -456 -260 -294 -470 -360 -746 -235 -222 101 -404 290
-563 585 -89 165 -94 170 -378 399 -96 77 -97 100 -20 248 68 130 145 198 224
198 45 0 71 -11 142 -57 19 -13 49 -23 66 -23 42 0 71 -22 94 -73 27 -57 52
-143 52 -177 0 -77 48 -134 205 -240 27 -19 97 -74 155 -122 58 -48 125 -98
149 -110 l43 -23 20 27 c12 14 49 93 84 175 146 340 271 520 433 627 139 91
213 114 403 122 194 9 178 29 -22 28 -121 0 -147 -4 -245 -32 -95 -27 -127
-32 -223 -32 -173 0 -221 26 -287 153 -20 40 -47 83 -60 97 -25 28 -45 65 -68
125 -36 92 -38 109 -24 171 16 66 11 90 -28 136 -39 47 -33 76 30 138 101 100
108 136 74 383 -30 220 48 422 236 613 84 87 163 135 438 270 16 8 37 14 47
14 10 0 31 5 47 12 77 33 314 45 468 23z m907 -433 c31 -35 98 -158 98 -181 0
-5 7 -22 15 -37 8 -16 15 -36 15 -44 0 -9 4 -20 9 -25 18 -20 60 -161 93 -310
28 -130 31 -612 4 -725 -37 -150 -98 -279 -264 -553 -70 -114 -132 -216 -137
-225 -19 -32 -68 -107 -130 -202 -72 -110 -175 -278 -175 -287 0 -3 -20 -39
-45 -80 -25 -40 -45 -76 -45 -78 0 -2 -20 -39 -45 -81 -25 -41 -45 -77 -45
-79 0 -5 -150 -278 -178 -325 -12 -19 -26 -44 -31 -56 -5 -11 -28 -51 -50 -88
-23 -36 -41 -69 -41 -72 0 -3 -13 -26 -30 -51 -16 -24 -30 -46 -30 -48 0 -2
-44 -77 -97 -165 -54 -89 -102 -169 -108 -178 -5 -10 -32 -51 -59 -92 -210
-321 -292 -441 -375 -549 -217 -281 -243 -314 -254 -326 -7 -7 -57 -63 -112
-126 -262 -298 -511 -512 -705 -607 -232 -113 -521 -13 -934 322 -75 61 -468
453 -484 483 -13 24 8 59 180 290 54 73 98 134 98 137 0 3 13 24 28 48 169
258 194 660 71 1148 -33 130 -62 225 -99 320 -12 30 -26 71 -32 90 -5 19 -14
39 -19 44 -5 6 -9 19 -9 31 0 22 -26 65 -39 65 -8 0 -158 -199 -227 -302 -80
-117 -252 -436 -274 -505 -5 -15 -18 -53 -30 -83 -66 -169 -93 -346 -87 -565
3 -93 8 -182 12 -198 7 -24 5 -26 -13 -20 -18 7 -64 61 -207 243 -28 36 -86
108 -128 162 -96 120 -107 150 -112 303 -7 214 -16 255 -52 255 -19 0 -40 15
-77 58 -28 31 -78 86 -112 122 -83 89 -214 267 -214 290 0 5 -6 13 -13 17 -8
4 -17 15 -20 23 -4 8 -21 38 -38 65 -40 65 -100 192 -110 230 -4 17 -12 44
-18 60 -58 171 -94 563 -61 675 6 19 15 64 20 100 14 97 34 161 81 257 101
208 211 311 419 394 52 21 318 18 389 -4 211 -65 430 -234 593 -457 43 -58 97
-132 121 -165 44 -61 257 -407 257 -418 0 -4 13 -28 29 -54 79 -131 331 -631
331 -658 0 -3 14 -35 31 -72 59 -127 77 -168 99 -223 12 -30 27 -68 35 -85 17
-40 74 -181 91 -227 8 -21 21 -55 29 -75 18 -47 55 -156 101 -293 19 -58 39
-118 45 -135 6 -16 14 -43 19 -60 5 -16 13 -43 18 -60 6 -16 18 -57 27 -90 9
-33 24 -82 32 -108 23 -71 10 -128 -59 -260 -46 -89 -62 -308 -29 -402 23 -67
75 -99 118 -73 16 9 31 23 34 30 4 7 13 26 20 42 18 37 19 288 2 366 -33 151
-36 179 -22 212 42 103 291 384 464 523 43 35 203 166 260 214 64 53 282 224
420 329 292 222 401 319 549 492 178 207 289 379 338 523 19 56 21 86 23 322
2 342 16 419 119 650 13 28 29 64 36 80 59 131 99 285 140 530 26 155 106 199
163 90 24 -47 29 -242 7 -330 -7 -27 -17 -105 -24 -173 -14 -147 -5 -198 36
-222 76 -42 181 97 308 405 49 121 70 407 36 516 -64 207 -74 342 -29 377 24
17 27 16 65 -26z m-3938 -2734 c42 -115 118 -358 152 -483 37 -141 74 -385 74
-496 0 -94 -31 -303 -50 -339 -5 -10 -10 -26 -10 -35 0 -9 -23 -62 -51 -118
-74 -149 -91 -177 -220 -342 -52 -67 -106 -137 -120 -155 l-26 -35 -29 35
c-16 19 -48 53 -70 75 -51 50 -172 188 -204 235 -16 22 -27 55 -31 95 -4 33
-13 105 -19 160 -22 180 24 476 99 650 5 11 26 61 46 110 64 155 128 266 298
520 34 50 72 107 86 128 33 50 55 48 75 -5z m-1574 -124 c0 -6 42 -66 51 -74
3 -3 11 -15 18 -28 23 -43 209 -268 274 -330 100 -96 104 -106 108 -252 5
-144 -2 -153 -54 -75 -18 28 -53 80 -78 116 -130 193 -225 364 -331 599 -11
25 -24 53 -29 62 -17 34 -9 41 16 14 14 -15 25 -29 25 -32z m2594 -1624 c23
-108 22 -371 0 -406 -40 -60 -88 -48 -111 28 -34 116 8 412 65 456 23 17 29 7
46 -78z M5405 6163 c-40 -11 -105 -62 -105 -82 0 -23 20 -18 63 14 157 120
269 -129 138 -307 -59 -80 -139 -120 -189 -94 -38 20 -48 9 -20 -21 69 -73
236 34 280 180 20 66 16 186 -8 232 -33 64 -97 95 -159 78z M1598 4942 c-59
-79 -60 -80 -132 -227 -35 -71 -72 -157 -81 -190 -10 -33 -24 -80 -31 -104 -8
-25 -14 -58 -14 -75 -1 -17 -7 -58 -15 -91 -21 -88 -16 -593 5 -555 2 3 6 129
10 280 7 310 16 364 85 560 26 71 120 254 182 353 26 42 63 51 63 16 0 -11 5
-29 11 -40 13 -25 32 -95 61 -224 31 -141 33 -505 4 -605 -61 -207 -87 -264
-201 -432 -60 -89 -88 -138 -77 -138 40 0 262 362 262 429 0 6 6 25 14 43 41
97 51 177 50 403 -1 171 -5 231 -18 270 -9 28 -16 61 -16 75 0 14 -7 46 -15
73 -8 26 -22 71 -31 100 -31 100 -47 137 -60 137 -7 0 -32 -26 -56 -58z M2293
3330 c-21 -45 -39 -110 -53 -185 -4 -22 -12 -60 -18 -85 -20 -83 -34 -164 -42
-245 -5 -44 -13 -109 -19 -145 -14 -84 -14 -220 -1 -220 6 0 10 15 11 33 4
126 22 267 51 402 6 28 14 73 18 100 11 74 30 163 46 221 8 28 14 63 14 78 0
15 5 36 11 47 6 11 9 25 6 32 -2 6 -13 -9 -24 -33z M2768 8134 c-4 -6 -12 -28
-17 -50 -15 -55 -46 -169 -66 -234 -9 -30 -20 -71 -25 -90 -4 -19 -13 -48 -19
-65 -6 -16 -19 -57 -30 -90 -18 -54 -36 -102 -60 -160 -5 -11 -19 -44 -31 -74
-25 -61 -72 -152 -137 -262 -173 -292 -458 -544 -853 -752 -286 -150 -377
-205 -503 -307 -303 -243 -448 -486 -507 -850 -20 -121 -23 -192 -11 -266 7
-38 16 -98 21 -133 4 -35 14 -68 20 -75 13 -11 13 -3 -7 262 -22 305 120 662
361 907 75 75 276 228 351 265 6 3 28 16 50 30 23 14 50 30 60 37 11 7 52 29
90 49 563 296 863 578 1067 1004 57 120 91 204 107 265 5 17 13 41 18 55 6 14
18 52 28 85 10 33 23 80 31 105 12 43 19 72 59 231 16 64 18 136 3 113z M6020
3728 c0 -241 -5 -401 -15 -508 -31 -308 -61 -521 -91 -626 -8 -28 -14 -59 -14
-70 0 -10 -6 -36 -14 -59 -7 -22 -21 -65 -29 -95 -39 -133 -49 -167 -62 -200
-8 -19 -30 -75 -49 -125 -19 -49 -47 -115 -61 -145 -108 -227 -161 -324 -201
-370 -106 -122 -140 -159 -217 -230 -48 -45 -114 -103 -146 -129 -173 -135
-223 -172 -291 -216 -41 -26 -94 -61 -118 -76 -24 -16 -45 -29 -47 -29 -7 0
-297 -204 -345 -243 -8 -7 -47 -38 -86 -69 -90 -72 -231 -223 -293 -313 -45
-67 -111 -194 -111 -215 0 -20 18 -9 29 18 6 15 20 41 31 57 11 17 23 37 27
45 19 43 164 214 252 298 97 93 191 161 331 241 161 92 168 97 336 214 188
132 217 138 679 147 382 7 399 9 531 49 110 34 284 118 383 185 137 92 426
395 401 420 -15 15 -264 9 -390 -10 -198 -30 -317 -57 -445 -101 -38 -13 -84
-28 -100 -33 -44 -14 -264 -127 -302 -155 -17 -14 -34 -25 -38 -25 -14 0 -163
-120 -179 -144 -24 -38 -11 -32 68 28 146 110 283 189 426 246 30 12 64 27 75
32 11 6 33 15 50 19 16 4 44 12 60 17 89 30 211 57 325 72 36 5 92 13 125 19
96 17 255 14 255 -4 0 -23 -150 -186 -243 -264 -153 -128 -340 -228 -517 -275
-30 -8 -75 -20 -100 -27 -29 -8 -174 -15 -410 -20 -201 -4 -384 -10 -408 -14
-41 -7 -43 -6 -32 11 6 11 29 32 51 47 45 33 412 372 448 414 13 15 113 119
221 229 109 111 210 220 225 243 26 38 43 47 84 41 8 -1 35 4 60 10 156 40
318 132 453 259 222 208 348 426 431 741 32 120 47 190 47 215 0 14 6 47 14
73 33 114 58 354 37 366 -11 7 -70 -24 -221 -116 -63 -38 -124 -75 -135 -81
-328 -198 -615 -617 -698 -1017 -38 -184 -48 -251 -51 -336 -2 -105 12 -81
-165 -273 -173 -187 -255 -271 -268 -271 -16 0 -17 36 -2 45 5 4 15 17 20 28
5 12 18 36 28 52 21 33 102 193 149 295 16 36 50 126 74 200 43 130 61 198 94
360 8 41 22 104 30 140 8 36 14 76 14 90 0 14 6 61 14 105 36 200 49 395 49
760 0 199 -3 371 -7 383 -21 64 -26 -2 -26 -330z m1074 -97 c8 -12 -40 -326
-70 -461 -24 -103 -74 -270 -93 -308 -5 -9 -26 -53 -47 -97 -132 -278 -286
-454 -519 -591 -27 -16 -59 -34 -70 -41 -11 -7 -27 -15 -35 -18 -8 -4 -27 -13
-42 -21 -14 -8 -31 -14 -38 -14 -7 0 -28 -7 -47 -16 -60 -29 -67 10 -11 67 28
28 315 416 354 477 82 131 174 304 174 327 0 21 -19 19 -26 -2 -3 -10 -9 -25
-14 -33 -5 -8 -19 -33 -31 -55 -11 -22 -34 -59 -50 -83 -16 -24 -29 -45 -29
-47 0 -7 -152 -234 -217 -324 -79 -110 -209 -261 -224 -261 -31 0 11 238 92
515 44 152 170 378 281 505 155 177 272 271 533 429 101 61 119 68 129 52z
M5466 2718 c-43 -49 -154 -234 -179 -295 -33 -82 -46 -118 -60 -168 -26 -89
-61 -316 -77 -497 -5 -54 -11 -102 -14 -106 -3 -5 -10 -42 -15 -83 -6 -41 -19
-103 -29 -139 -27 -96 -13 -115 49 -63 38 32 189 204 189 215 0 4 13 27 30 51
31 47 113 201 123 233 3 10 15 46 27 79 11 33 30 105 42 160 44 200 21 642
-34 653 -9 2 -32 -16 -52 -40z m55 -55 c22 -46 25 -436 4 -527 -23 -98 -45
-175 -59 -211 -67 -163 -149 -304 -239 -410 -88 -104 -106 -109 -89 -28 17 77
40 228 57 378 38 326 92 514 197 673 15 24 28 45 28 48 0 5 36 59 59 87 19 23
25 22 42 -10z M1616 2088 c8 -27 12 -33 19 -27 7 8 -7 49 -17 49 -5 0 -6 -10
-2 -22z M1671 1953 c0 -5 4 -17 9 -28 8 -18 9 -17 9 8 1 15 -3 27 -9 27 -5 0
-10 -3 -9 -7z"/>
  </g>
</svg>
